# xmcd CD database file
# Generated: Sat Feb 1 17:39:30 2003 by KSCD
# 
# Track frame offsets:
#       150
#       19957
#       41280
#       63770
#       83735
#       98967
#       115582
#       131510
#       153250
#       174952
#
# Disc length: 2589 seconds
#
# Revision: 1
# Processed by: cddbd v1.4PL0 Copyright (c) Steve Scherf et al.
# Submitted via: Kscd 1.3.3
#
DISCID=6c0a1b0a
DTITLE=Marco Antonio Solis - En Vivo Vol. 2
DYEAR=1900
DGENRE=
TTITLE0=Que Pena Me Das
TTITLE1=La Ultima Parte
TTITLE2=A Aquella - Una Mujer Como Tú
TTITLE3=Si Te Pudiera Mentir
TTITLE4=Me Vas A Hacer llorar
TTITLE5=Muévete
TTITLE6=Invéntame
TTITLE7=Recuerdos, Tristeza Y Soledad
TTITLE8=Tu Cárcel
TTITLE9=La Venia Bendita - Final
EXTD=
EXTT0=
EXTT1=
EXTT2=
EXTT3=
EXTT4=
EXTT5=
EXTT6=
EXTT7=
EXTT8=
EXTT9=
PLAYORDER=
